<?xml version="1.0" encoding="UTF-8" standalone="no"?>
<!-- Created with Inkscape (http://www.inkscape.org/) -->

<svg
   xmlns:dc="http://purl.org/dc/elements/1.1/"
   xmlns:cc="http://creativecommons.org/ns#"
   xmlns:rdf="http://www.w3.org/1999/02/22-rdf-syntax-ns#"
   xmlns:svg="http://www.w3.org/2000/svg"
   xmlns="http://www.w3.org/2000/svg"
   xmlns:sodipodi="http://sodipodi.sourceforge.net/DTD/sodipodi-0.dtd"
   xmlns:inkscape="http://www.inkscape.org/namespaces/inkscape"
   width="210mm"
   height="210mm"
   viewBox="0 0 210 210"
   version="1.1"
   id="svg8"
   inkscape:version="0.92.2 5c3e80d, 2017-08-06"
   sodipodi:docname="agora-qtconbr-icon.svg"
   inkscape:export-filename="/data/devel/agora/agora-client/agora-qtconbr-icon.png"
   inkscape:export-xdpi="64.709999"
   inkscape:export-ydpi="64.709999">
  <defs
     id="defs2" />
  <sodipodi:namedview
     id="base"
     pagecolor="#000000"
     bordercolor="#666666"
     borderopacity="1.0"
     inkscape:pageopacity="0"
     inkscape:pageshadow="2"
     inkscape:zoom="0.55945568"
     inkscape:cx="-105.79335"
     inkscape:cy="387.41397"
     inkscape:document-units="mm"
     inkscape:current-layer="layer1"
     showgrid="false"
     inkscape:window-width="1366"
     inkscape:window-height="703"
     inkscape:window-x="0"
     inkscape:window-y="0"
     inkscape:window-maximized="1" />
  <metadata
     id="metadata5">
    <rdf:RDF>
      <cc:Work
         rdf:about="">
        <dc:format>image/svg+xml</dc:format>
        <dc:type
           rdf:resource="http://purl.org/dc/dcmitype/StillImage" />
        <dc:title />
      </cc:Work>
    </rdf:RDF>
  </metadata>
  <g
     inkscape:label="Layer 1"
     inkscape:groupmode="layer"
     id="layer1"
     transform="translate(0,-87)">
    <g
       transform="matrix(0.181478,0,0,0.181478,66.42903,65.24492)"
       id="g7" />
    <g
       transform="matrix(0.181478,0,0,0.181478,66.42903,65.24492)"
       id="g9" />
    <g
       transform="matrix(0.181478,0,0,0.181478,66.42903,65.24492)"
       id="g11" />
    <g
       transform="matrix(0.181478,0,0,0.181478,66.42903,65.24492)"
       id="g13" />
    <g
       transform="matrix(0.181478,0,0,0.181478,66.42903,65.24492)"
       id="g15" />
    <g
       transform="matrix(0.181478,0,0,0.181478,66.42903,65.24492)"
       id="g17" />
    <g
       transform="matrix(0.181478,0,0,0.181478,66.42903,65.24492)"
       id="g19" />
    <g
       transform="matrix(0.181478,0,0,0.181478,66.42903,65.24492)"
       id="g21" />
    <g
       transform="matrix(0.181478,0,0,0.181478,66.42903,65.24492)"
       id="g23" />
    <g
       transform="matrix(0.181478,0,0,0.181478,66.42903,65.24492)"
       id="g25" />
    <g
       transform="matrix(0.181478,0,0,0.181478,66.42903,65.24492)"
       id="g27" />
    <g
       transform="matrix(0.181478,0,0,0.181478,66.42903,65.24492)"
       id="g29" />
    <g
       transform="matrix(0.181478,0,0,0.181478,66.42903,65.24492)"
       id="g31" />
    <g
       transform="matrix(0.181478,0,0,0.181478,66.42903,65.24492)"
       id="g33" />
    <g
       transform="matrix(0.181478,0,0,0.181478,66.42903,65.24492)"
       id="g35" />
    <circle
       style="fill:#41cd52;fill-opacity:1;stroke:#ffffff;stroke-width:13.03344154;stroke-miterlimit:4;stroke-dasharray:none;stroke-opacity:1"
       id="path92"
       cx="105"
       cy="192"
       r="98.483276" />
    <g
       transform="matrix(1.4363933,0,0,1.4363933,40.362009,127.36217)"
       id="g6"
       style="fill:#ffffff">
      <g
         id="g4"
         style="fill:#ffffff">
        <path
           inkscape:connector-curvature="0"
           style="fill:#ffffff"
           d="M 87.432,18.4 C 30.388,41.235 53.493,-20.223 9.25,12.129 L 0,15.452 18.326,87.5 H 28.42 L 19.444,52.211 C 58.916,19.121 42.935,88.267 89.628,20.424 90.712,18.85 89.262,17.668 87.432,18.4 Z"
           id="path2" />
      </g>
    </g>
    <g
       transform="matrix(1.4363933,0,0,1.4363933,48.155796,130.82641)"
       id="g8"
       style="fill:#ffffff" />
    <g
       transform="matrix(1.4363933,0,0,1.4363933,48.155796,130.82641)"
       id="g10"
       style="fill:#ffffff" />
    <g
       transform="matrix(1.4363933,0,0,1.4363933,48.155796,130.82641)"
       id="g12"
       style="fill:#ffffff" />
    <g
       transform="matrix(1.4363933,0,0,1.4363933,48.155796,130.82641)"
       id="g14"
       style="fill:#ffffff" />
    <g
       transform="matrix(1.4363933,0,0,1.4363933,48.155796,130.82641)"
       id="g16"
       style="fill:#ffffff" />
    <g
       transform="matrix(1.4363933,0,0,1.4363933,48.155796,130.82641)"
       id="g18"
       style="fill:#ffffff" />
    <g
       transform="matrix(1.4363933,0,0,1.4363933,48.155796,130.82641)"
       id="g20"
       style="fill:#ffffff" />
    <g
       transform="matrix(1.4363933,0,0,1.4363933,48.155796,130.82641)"
       id="g22"
       style="fill:#ffffff" />
    <g
       transform="matrix(1.4363933,0,0,1.4363933,48.155796,130.82641)"
       id="g24"
       style="fill:#ffffff" />
    <g
       transform="matrix(1.4363933,0,0,1.4363933,48.155796,130.82641)"
       id="g26"
       style="fill:#ffffff" />
    <g
       transform="matrix(1.4363933,0,0,1.4363933,48.155796,130.82641)"
       id="g28"
       style="fill:#ffffff" />
    <g
       transform="matrix(1.4363933,0,0,1.4363933,48.155796,130.82641)"
       id="g30"
       style="fill:#ffffff" />
    <g
       transform="matrix(1.4363933,0,0,1.4363933,48.155796,130.82641)"
       id="g32"
       style="fill:#ffffff" />
    <g
       transform="matrix(1.4363933,0,0,1.4363933,48.155796,130.82641)"
       id="g34"
       style="fill:#ffffff" />
    <g
       transform="matrix(1.4363933,0,0,1.4363933,48.155796,130.82641)"
       id="g36"
       style="fill:#ffffff" />
  </g>
</svg>
