<?xml version="1.0" encoding="UTF-8" standalone="no"?>
<!-- Created with Inkscape (http://www.inkscape.org/) -->

<svg
   xmlns:dc="http://purl.org/dc/elements/1.1/"
   xmlns:cc="http://creativecommons.org/ns#"
   xmlns:rdf="http://www.w3.org/1999/02/22-rdf-syntax-ns#"
   xmlns:svg="http://www.w3.org/2000/svg"
   xmlns="http://www.w3.org/2000/svg"
   xmlns:xlink="http://www.w3.org/1999/xlink"
   xmlns:sodipodi="http://sodipodi.sourceforge.net/DTD/sodipodi-0.dtd"
   xmlns:inkscape="http://www.inkscape.org/namespaces/inkscape"
   width="200"
   height="320"
   viewBox="0 0 52.916667 84.66666"
   version="1.1"
   id="svg8"
   inkscape:version="0.92.2 5c3e80d, 2017-08-06"
   sodipodi:docname="agora-splash.svg"
   inkscape:export-filename="/home/qmob/agora-client/android/res/drawable-ldpi/splash.png"
   inkscape:export-xdpi="96"
   inkscape:export-ydpi="96">
  <defs
     id="defs2">
    <linearGradient
       inkscape:collect="always"
       id="linearGradient1499">
      <stop
         style="stop-color:#05070d;stop-opacity:1;"
         offset="0"
         id="stop1495" />
      <stop
         style="stop-color:#0f1527;stop-opacity:1"
         offset="1"
         id="stop1497" />
    </linearGradient>
    <linearGradient
       inkscape:collect="always"
       xlink:href="#linearGradient1499"
       id="linearGradient1501"
       x1="0.18264008"
       y1="26.249891"
       x2="158.56735"
       y2="296.81793"
       gradientUnits="userSpaceOnUse"
       gradientTransform="matrix(0.33410212,0,0,0.31292198,-0.06102105,204.11976)" />
  </defs>
  <sodipodi:namedview
     id="base"
     pagecolor="#ffffff"
     bordercolor="#666666"
     borderopacity="1.0"
     inkscape:pageopacity="0.0"
     inkscape:pageshadow="2"
     inkscape:zoom="0.82482608"
     inkscape:cx="204.20365"
     inkscape:cy="231.19732"
     inkscape:document-units="mm"
     inkscape:current-layer="layer1"
     showgrid="false"
     units="px"
     inkscape:window-width="1366"
     inkscape:window-height="703"
     inkscape:window-x="0"
     inkscape:window-y="0"
     inkscape:window-maximized="1" />
  <metadata
     id="metadata5">
    <rdf:RDF>
      <cc:Work
         rdf:about="">
        <dc:format>image/svg+xml</dc:format>
        <dc:type
           rdf:resource="http://purl.org/dc/dcmitype/StillImage" />
        <dc:title></dc:title>
      </cc:Work>
    </rdf:RDF>
  </metadata>
  <g
     inkscape:label="Layer 1"
     inkscape:groupmode="layer"
     id="layer1"
     transform="translate(0,-212.33392)">
    <g
       id="g909">
      <rect
         y="212.33392"
         x="-6.357829e-07"
         height="84.666664"
         width="52.916668"
         id="rect1474"
         style="fill:url(#linearGradient1501);fill-opacity:1;stroke:none;stroke-width:0.11811137;stroke-miterlimit:4;stroke-dasharray:none;stroke-opacity:1" />
      <g
         transform="matrix(0.155521,0,0,0.155521,-1.0999728e-6,248.1032)"
         id="g271">
        <g
           id="g2932"
           transform="matrix(2.1479643,0,0,2.1479643,-0.36757889,-307.2708)">
          <g
             transform="matrix(0.26779289,0,0,0.26779289,63.405303,67.769943)"
             id="g1651">
            <g
               transform="matrix(0.181478,0,0,0.181478,21.063548,15.897354)"
               id="g7" />
            <g
               transform="matrix(0.181478,0,0,0.181478,21.063548,15.897354)"
               id="g9" />
            <g
               transform="matrix(0.181478,0,0,0.181478,21.063548,15.897354)"
               id="g11" />
            <g
               transform="matrix(0.181478,0,0,0.181478,21.063548,15.897354)"
               id="g13" />
            <g
               transform="matrix(0.181478,0,0,0.181478,21.063548,15.897354)"
               id="g15" />
            <g
               transform="matrix(0.181478,0,0,0.181478,21.063548,15.897354)"
               id="g17" />
            <g
               transform="matrix(0.181478,0,0,0.181478,21.063548,15.897354)"
               id="g19" />
            <g
               transform="matrix(0.181478,0,0,0.181478,21.063548,15.897354)"
               id="g21" />
            <g
               transform="matrix(0.181478,0,0,0.181478,21.063548,15.897354)"
               id="g23" />
            <g
               transform="matrix(0.181478,0,0,0.181478,21.063548,15.897354)"
               id="g25" />
            <g
               transform="matrix(0.181478,0,0,0.181478,21.063548,15.897354)"
               id="g27" />
            <g
               transform="matrix(0.181478,0,0,0.181478,21.063548,15.897354)"
               id="g29" />
            <g
               transform="matrix(0.181478,0,0,0.181478,21.063548,15.897354)"
               id="g31" />
            <g
               transform="matrix(0.181478,0,0,0.181478,21.063548,15.897354)"
               id="g33" />
            <g
               transform="matrix(0.181478,0,0,0.181478,21.063548,15.897354)"
               id="g35" />
            <circle
               style="fill:#41cd52;fill-opacity:1;stroke:#ffffff;stroke-width:13.0334425;stroke-miterlimit:4;stroke-dasharray:none;stroke-opacity:1"
               id="path92"
               cx="59.634506"
               cy="142.65242"
               r="98.483284" />
            <g
               transform="matrix(1.4363933,0,0,1.4363933,-5.0034719,78.014603)"
               id="g6"
               style="fill:#ffffff">
              <g
                 id="g4"
                 style="fill:#ffffff">
                <path
                   inkscape:connector-curvature="0"
                   style="fill:#ffffff"
                   d="M 87.432,18.4 C 30.388,41.235 53.493,-20.223 9.25,12.129 L 0,15.452 18.326,87.5 H 28.42 L 19.444,52.211 C 58.916,19.121 42.935,88.267 89.628,20.424 90.712,18.85 89.262,17.668 87.432,18.4 Z"
                   id="path2" />
              </g>
            </g>
            <g
               transform="matrix(1.4363933,0,0,1.4363933,2.7903181,81.478843)"
               id="g8"
               style="fill:#ffffff" />
            <g
               transform="matrix(1.4363933,0,0,1.4363933,2.7903181,81.478843)"
               id="g10"
               style="fill:#ffffff" />
            <g
               transform="matrix(1.4363933,0,0,1.4363933,2.7903181,81.478843)"
               id="g12"
               style="fill:#ffffff" />
            <g
               transform="matrix(1.4363933,0,0,1.4363933,2.7903181,81.478843)"
               id="g14"
               style="fill:#ffffff" />
            <g
               transform="matrix(1.4363933,0,0,1.4363933,2.7903181,81.478843)"
               id="g16"
               style="fill:#ffffff" />
            <g
               transform="matrix(1.4363933,0,0,1.4363933,2.7903181,81.478843)"
               id="g18"
               style="fill:#ffffff" />
            <g
               transform="matrix(1.4363933,0,0,1.4363933,2.7903181,81.478843)"
               id="g20"
               style="fill:#ffffff" />
            <g
               transform="matrix(1.4363933,0,0,1.4363933,2.7903181,81.478843)"
               id="g22"
               style="fill:#ffffff" />
            <g
               transform="matrix(1.4363933,0,0,1.4363933,2.7903181,81.478843)"
               id="g24"
               style="fill:#ffffff" />
            <g
               transform="matrix(1.4363933,0,0,1.4363933,2.7903181,81.478843)"
               id="g26"
               style="fill:#ffffff" />
            <g
               transform="matrix(1.4363933,0,0,1.4363933,2.7903181,81.478843)"
               id="g28"
               style="fill:#ffffff" />
            <g
               transform="matrix(1.4363933,0,0,1.4363933,2.7903181,81.478843)"
               id="g30"
               style="fill:#ffffff" />
            <g
               transform="matrix(1.4363933,0,0,1.4363933,2.7903181,81.478843)"
               id="g32"
               style="fill:#ffffff" />
            <g
               transform="matrix(1.4363933,0,0,1.4363933,2.7903181,81.478843)"
               id="g34"
               style="fill:#ffffff" />
            <g
               transform="matrix(1.4363933,0,0,1.4363933,2.7903181,81.478843)"
               id="g36"
               style="fill:#ffffff" />
          </g>
          <text
             id="text1655"
             y="149.86502"
             x="51.05521"
             style="font-style:normal;font-weight:normal;font-size:10.06447792px;line-height:1.25;font-family:sans-serif;letter-spacing:0px;word-spacing:0px;fill:#000000;fill-opacity:1;stroke:none;stroke-width:0.25161195"
             xml:space="preserve"><tspan
               style="font-style:normal;font-variant:normal;font-weight:600;font-stretch:normal;font-size:10.06447792px;font-family:'Titillium Web';-inkscape-font-specification:'Titillium Web, Semi-Bold';font-variant-ligatures:normal;font-variant-caps:normal;font-variant-numeric:normal;font-feature-settings:normal;text-align:start;writing-mode:lr-tb;text-anchor:start;fill:#ffffff;stroke-width:0.25161195"
               y="149.86502"
               x="51.05521"
               id="tspan1653"
               sodipodi:role="line">Ágora Mobile</tspan></text>
        </g>
        <g
           id="g1044"
           transform="matrix(0.97880831,0,0,0.97880831,2.492513,4.7751037)">
          <g
             id="g2853"
             transform="matrix(0.39817554,0,0,0.39817554,208.9015,205.92504)">
            <g
               id="g1342"
               inkscape:export-filename="/home/sandroandrade/qt-logo.png"
               inkscape:export-xdpi="107.11"
               inkscape:export-ydpi="107.11">
              <polygon
                 inkscape:export-ydpi="192"
                 inkscape:export-xdpi="192"
                 transform="matrix(0.44444445,0,0,0.44893378,6.666665,6.5000002)"
                 class="st0"
                 points="105.2,0 16.8,0 0,16.8 0,72.9 0,77.5 0,89.1 11.6,89.1 15.8,89.1 104.2,89.1 121,72.3 121,16.2 121,11.6 121,0 109.4,0 "
                 id="polygon4"
                 style="fill:#41cd52" />
              <path
                 inkscape:export-ydpi="192"
                 inkscape:export-xdpi="192"
                 class="st2"
                 d="m 26.71111,37.922223 c -3.555556,0 -6,-0.933333 -7.422223,-2.844445 -1.377777,-1.911111 -2.088889,-4.933333 -2.088889,-9.022222 0,-4.133333 0.711112,-7.2 2.133334,-9.2 1.422222,-2 3.866667,-2.977778 7.377778,-2.977778 3.511111,0 5.955555,0.977778 7.377778,2.977778 1.422222,2 2.133333,5.066667 2.133333,9.2 0,2.711111 -0.311111,4.933333 -0.888889,6.622222 -0.577778,1.688889 -1.511111,2.977778 -2.844444,3.866667 l 2.844444,4.577778 -3.511111,1.644444 -3.022222,-4.977777 c -0.444445,0.04444 -1.155556,0.133333 -2.088889,0.133333 z m -4.444445,-5.288889 c 0.755556,1.333333 2.266667,2 4.444445,2 2.177778,0 3.644444,-0.666667 4.4,-1.955556 0.755555,-1.333333 1.155555,-3.555555 1.155555,-6.666666 0,-3.111112 -0.4,-5.377778 -1.155555,-6.8 -0.8,-1.422223 -2.222222,-2.133334 -4.355556,-2.133334 -2.133333,0 -3.6,0.711111 -4.4,2.133334 -0.844444,1.466666 -1.244444,3.688888 -1.244444,6.8 0,3.066666 0.4,5.288889 1.155555,6.622222 z"
                 id="path8"
                 inkscape:connector-curvature="0"
                 style="fill:#ffffff;stroke-width:0.44444445" />
              <path
                 inkscape:export-ydpi="192"
                 inkscape:export-xdpi="192"
                 class="st2"
                 d="m 49.288888,23.255556 h -4.711111 v 7.511111 c 0,1.377778 0.08889,2.311111 0.311111,2.755556 0.222222,0.444444 0.711111,0.666666 1.555555,0.666666 l 2.8,-0.08889 0.177778,2.977777 c -1.511111,0.311112 -2.666667,0.444445 -3.466667,0.444445 -1.911111,0 -3.244444,-0.444445 -3.955555,-1.333334 -0.711111,-0.888888 -1.066667,-2.533333 -1.066667,-5.022222 V 23.255556 H 38.31111 V 20.1 h 2.577778 v -4.933333 h 3.688889 V 20.1 h 4.711111 z"
                 id="path10"
                 inkscape:connector-curvature="0"
                 style="fill:#ffffff;stroke-width:0.44444445" />
            </g>
          </g>
          <text
             id="text2884"
             y="220.93359"
             x="108.38232"
             style="font-style:normal;font-weight:normal;font-size:13.8419857px;line-height:1.25;font-family:sans-serif;letter-spacing:0px;word-spacing:0px;fill:#000000;fill-opacity:1;stroke:none;stroke-width:0.34604964"
             xml:space="preserve"><tspan
               style="font-style:normal;font-variant:normal;font-weight:normal;font-stretch:normal;font-size:13.8419857px;font-family:'Titillium Web';-inkscape-font-specification:'Titillium Web, Normal';font-variant-ligatures:normal;font-variant-caps:normal;font-variant-numeric:normal;font-feature-settings:normal;text-align:start;writing-mode:lr-tb;text-anchor:start;fill:#ffffff;stroke-width:0.34604964"
               y="220.93359"
               x="108.38232"
               id="tspan2882"
               sodipodi:role="line">Desenvolvido em</tspan></text>
        </g>
      </g>
    </g>
  </g>
</svg>
